<?xml version="1.0" encoding="UTF-8"?>
<svg width="500" height="578.30847" version="1.1" viewBox="0 0 132.29166 153.01078" xmlns="http://www.w3.org/2000/svg" xmlns:cc="http://creativecommons.org/ns#" xmlns:dc="http://purl.org/dc/elements/1.1/" xmlns:rdf="http://www.w3.org/1999/02/22-rdf-syntax-ns#">
 <metadata>
  <rdf:RDF>
   <cc:Work rdf:about="">
    <dc:format>image/svg+xml</dc:format>
    <dc:type rdf:resource="http://purl.org/dc/dcmitype/StillImage"/>
    <dc:title/>
   </cc:Work>
  </rdf:RDF>
 </metadata>
 <g transform="translate(1.9756622e-6,-50.039101)" stroke="#00337f" stroke-linecap="round" stroke-linejoin="round" stroke-miterlimit="3.864">
  <path d="m75.122082 196.16679 29.700078-3e-3s5.96328 3e-3 3.36928 3e-3c0 0 8.9966-3e-3 15.94514-6.95177 7.04544-7.04222 7.02607-13.48036 7.02607-16.04528v-122.001619h-130.032341v122.001619c0 2.56492-0.01923 9.00306 7.02284 16.04528 6.948539 6.94853 15.945136 6.95177 15.945136 6.95177h3.353128l29.800221-3e-3c6.150638 0 8.909377 5.49164 8.909377 5.49164s2.758749-5.49164 8.909391-5.49164z" fill="#0072c6" stroke-width="2.25804"/>
  <g stroke-width="1.97376">
   <path d="m101.18411 150.04218c11.42261-9.85264 18.65543-24.43133 18.65543-40.69951 0-1.1694-0.0385-2.3291-0.10979-3.47911l-6.45753 3.23037c3e-3 0.0806 0.0165 0.16474 0.0165 0.24871 0 1.50858-0.0714 2.99779-0.20997 4.46761-6.16355 3.42743-12.77613 6.1894-19.672988 8.21162l-3e-3 6.91946c-8.63802 2.53261-17.77999 3.88937-27.238534 3.88937-9.455306 0-18.603735-1.37614-27.241763-3.90552l-0.0065-6.90655c-6.913011-2.02544-13.502972-4.80357-19.679451-8.23745-0.138911-1.46982-0.232587-2.93319-0.232587-4.43854 0-0.0806 0.01282-0.14862 0.01282-0.22618l-6.502751-3.2756c-0.07417 1.15648-0.113088 2.32588-0.113088 3.50173 0 16.27463 7.248961 30.86947 18.681267 40.72212 1.809006-0.84958 3.711696-1.57965 6.163558-1.57965 5.869592-3e-3 8.58957 4.17688 14.459162 4.17365 5.856671-3e-3 8.570184-4.16396 14.423632-4.17365 5.876047-0.0101 8.605725 4.15749 14.481775 4.15426 5.8599-3e-3 8.58311-4.16072 14.44302-4.15426 2.44862 3e-3 4.32223 0.70747 6.131248 1.55704z" fill="#ffc61e"/>
   <path d="m111.68542 121.4708c-13.564348 7.25219-29.057238 11.36123-45.51277 11.36123-16.462002 0-31.964573-4.11549-45.532157-11.37092m87.898537 8.57019c-12.792288 6.24754-27.170688 9.75573-42.36638 9.75573-15.208614 0-29.596708-3.51464-42.395454-9.76865m78.326924 9.82357c-11.109258 4.44823-23.232868 6.89686-35.93147 6.89686-12.688917 0-24.806055-2.4454-35.908866-6.88716m10.3049 9.0935c-12.973186-8.39898-21.5563-22.99705-21.5563-39.60118v-0.23909m94.288226-0.0101v0.24871c0 16.61705-8.59604 31.22482-21.585378 39.62057" fill="none"/>
  </g>
  <path d="m1.129018 150.56131c2.151431-1.04018 4.315782-2.07713 7.242506-2.07713 5.863127 3e-3 8.579882 4.17365 14.439776 4.17365 5.863136 3e-3 8.579882-4.17042 14.443018-4.17365 5.869592-3e-3 8.592802 4.1801 14.462394 4.17365 5.856671-3e-3 8.566961-4.16396 14.423632-4.17365 5.876048-0.0101 8.605718 4.16073 14.481768 4.15426 5.85991-3e-3 8.57988-4.16073 14.43979-4.15426 5.856668 6e-3 8.570178 4.17365 14.423628 4.17365 5.87928 3e-3 8.42158-4.19304 14.48177-4.19304 3.10763 0 5.11046 1.0951 7.19406 2.16759v22.53834c0 2.56168 0.0192 9.00305-7.02284 16.04527-6.94854 6.94854-15.94514 6.95178-15.94514 6.95178l-33.121048-3e-3c-6.15064-5.6e-4 -8.912612 5.49164-8.912612 5.49164s-2.758739-5.49164-8.909377-5.49164l-33.153349 3e-3s-8.996597-3e-3 -15.941904-6.95178c-7.045457-7.04222-7.026072-13.48359-7.026072-16.04527z" fill="#fff" stroke-width="2.25804"/>
  <g stroke-width="1.41168">
   <path d="m47.792507 83.008973c0-1.7864 1.447205-3.23361 3.233611-3.23361 1.783165 0 3.233602 1.44721 3.233602 3.23361s-1.450437 3.23361-3.233602 3.23361c-1.786406 0-3.233611-1.44721-3.233611-3.23361z" fill="#fff"/>
   <path d="m84.51154 83.016733c0-1.7864-1.4472-3.23361-3.23361-3.23361-1.78316 0-3.23037 1.44721-3.23037 3.23361 0 1.78639 1.44721 3.23361 3.23037 3.23361 1.78641 0 3.23361-1.44722 3.23361-3.23361z" fill="#fff"/>
   <path d="m38.893139 92.605453h54.499681" fill="none"/>
   <path d="m98.9649 81.084963c0.975578-0.55564 1.63458-1.6055 1.63458-2.81043 0-1.78639 1.45043-3.20129 3.23683-3.20129 0-1.78641-1.44721-3.23685-3.23361-3.23685-1.41168 0-2.60691 0.90453-3.04947 2.16759-0.37471-0.15503-0.79465-0.23909-1.22754-0.23909-1.78318 0-3.29823 1.51827-3.23038 3.36281 0.40382 0.14542 0.98849 0.44256 1.2986 0.72679 0.30044 0.27783 0.55885 0.60729 0.7365 0.98204-0.23579 0.19056-0.4942 0.34568-0.77532 0.46518-0.38762 0.16473-0.84638 0.26491-1.29538 0.26491-0.44256 0-0.8625-0.0907-1.24693-0.252-0.39732-0.16474-0.7527-0.40703-1.0531-0.71067-0.29715-0.30365-0.53624-0.66544-0.70097-1.06603-0.29394 0.29073-0.53623 0.64282-0.70097 1.03049-0.16803 0.39091-0.2617 0.82376-0.2617 1.27599 0 0.42644 0.0842 0.83017 0.23259 1.20493-0.42645 0-0.85609 0.0907-1.23078 0.23909-0.40061 0.16153-0.74949 0.40382-1.0531 0.70097-0.29394 0.29073-0.53303 0.62991-0.70097 1.01757 0.16794 0.38761 0.40382 0.72038 0.70097 1.01433 0.30044 0.29724 0.66223 0.53623 1.06279 0.69456 0.3715 0.15182 0.77853 0.23579 1.20493 0.23579-0.14862 0.3715-0.23258 0.78494-0.23258 1.21139 0 0.45227 0.0907 0.88191 0.2584 1.276 0.16804 0.38762 0.40703 0.7365 0.70427 1.03049 0.16153-0.40382 0.40052-0.76561 0.70096-1.06603 0.29715-0.30364 0.65573-0.54594 1.04987-0.71387 0.38441-0.15833 0.82376-0.24871 1.26631-0.24871 0.44576 0 0.8722 0.0907 1.25985 0.25521 0.28753 0.12279 0.56535 0.29394 0.80435 0.49099-1.3826 2.09006-3.7537 3.4662-6.44783 3.4662-3.09147 0-5.75653-1.81225-6.99053-4.43207h-0.83017c-1.23401 2.61982-3.9023 4.43207-6.990536 4.43207-2.694137 0-5.065234-1.37614-6.447836-3.4662-0.126-0.19385-0.248704-0.39411-0.361792-0.60088 0.03846-0.0385 0.07417-0.065 0.113088-0.10017 0.02564-0.0256 0.04212-0.0549 0.06776-0.0778 0.290734-0.27132 0.649321-0.5007 1.024024-0.65252 0.368293-0.14542 0.784936-0.22618 1.204929-0.22618 0.442557 0 0.881908 0.0906 1.266309 0.252 0.397321 0.16473 0.752703 0.40703 1.049874 0.71067 0.300441 0.30044 0.539438 0.66223 0.700967 1.06603 0.297143-0.29074 0.536232-0.64282 0.704171-1.03049 0.167939-0.39091 0.258409-0.82376 0.258409-1.27601 0-0.42644-0.08424-0.83987-0.232587-1.21138 0.426441 0 0.83347-0.0842 1.20493-0.23259 0.40053-0.16153 0.76232-0.40062 1.0628-0.69776 0.29714-0.29394 0.53623-0.6267 0.70096-1.01434-0.16473-0.38762-0.40702-0.72679-0.70096-1.01757-0.30365-0.29715-0.65253-0.53944-1.05311-0.70097-0.3715-0.14862-0.804351-0.23909-1.230773-0.23909 0.148618-0.3747 0.232588-0.77852 0.232588-1.20493 0-0.45226-0.09368-0.88511-0.25841-1.27599-0.168031-0.38762-0.410233-0.7398-0.704263-1.03049-0.161529 0.40052-0.403822 0.76561-0.700966 1.06601-0.297236 0.30365-0.655731 0.54594-1.053098 0.71068-0.177645 0.0778-0.368293 0.13241-0.562055 0.17444-0.09368 0.0229-0.151822 0.0385-0.245498 0.0513l-0.04487-0.0513c-0.164734-0.38762-0.261707-0.84638-0.261707-1.29215 0-0.44256 0.08699-0.8657 0.248704-1.25016 0.164734-0.39732 0.410232-0.7527 0.710672-1.04986 0.303646-0.30044 0.665438-0.53944 1.066028-0.70097-0.290734-0.29723-0.64282-0.53623-1.030489-0.70426-0.390912-0.16794-0.820557-0.26162-1.275997-0.26162-0.42644 0-0.830171 0.0842-1.201706 0.2358 0-0.42644-0.09368-0.85929-0.242294-1.23077-0.161529-0.40053-0.400526-0.75271-0.700966-1.05311-0.290734-0.29714-0.639614-0.53623-1.027256-0.70097-0.387615 0.16474-0.733291 0.40383-1.027257 0.70097-0.297235 0.30044-0.536232 0.65252-0.697761 1.05311-0.151823 0.37149-0.242294 0.80434-0.242294 1.23077-0.371498-0.15183-0.778526-0.2358-1.204929-0.2358-0.452263 0-0.881908 0.0937-1.272764 0.26162-0.387615 0.16803-0.739792 0.40703-1.033722 0.70426 0.403823 0.16153 0.765615 0.40053 1.069251 0.70097 0.30044 0.29714 0.542733 0.65252 0.710672 1.04986 0.161529 0.38441 0.248704 0.80756 0.248704 1.25016 0 0.44576-0.100178 0.90452-0.261707 1.29215l-0.02564 0.0513c-0.09688-0.0128-0.190557-0.0293-0.284233-0.0485-0.193853-0.0421-0.364997-0.10017-0.545938-0.17764-0.394116-0.16473-0.752703-0.40703-1.049875-0.71067-0.30044-0.30044-0.539437-0.66544-0.700966-1.06602-0.297235 0.29073-0.536232 0.64282-0.704263 1.03049-0.167938 0.39091-0.261706 0.82376-0.261706 1.27599 0 0.42644 0.08424 0.83018 0.235792 1.20493-0.42644 0-0.85929 0.0907-1.230779 0.23909-0.400526 0.16153-0.752703 0.40382-1.053098 0.70097-0.297235 0.29073-0.536232 0.62991-0.704263 1.01757 0.168031 0.38761 0.407028 0.72038 0.700967 1.01434 0.303645 0.29715 0.665437 0.53623 1.062794 0.69776 0.374704 0.14862 0.781731 0.23259 1.208162 0.23259-0.148617 0.3715-0.235792 0.78494-0.235792 1.21139 0 0.45226 0.09368 0.88511 0.261706 1.276 0.164734 0.38762 0.407028 0.73979 0.704263 1.03049 0.161529-0.40382 0.400526-0.76561 0.700966-1.06603 0.297236-0.30364 0.652526-0.54594 1.049875-0.71067 0.384409-0.16153 0.823761-0.252 1.263076-0.252 0.419939 0 0.839877 0.0806 1.208162 0.22618 0.374703 0.15182 0.73329 0.3812 1.024033 0.65252 0.02289 0.0229 0.04212 0.0513 0.06776 0.0778 0.03571 0.0357 0.08699 0.0742 0.122795 0.11309-0.109793 0.20026-0.229383 0.39732-0.355383 0.58797-1.382602 2.09005-3.753699 3.46619-6.447827 3.46619-3.088243 0-5.75653-1.81224-6.990533-4.43207h-0.846379c-1.237235 2.61983-3.902299 4.43207-6.990533 4.43207-2.694137 0-5.065235-1.37614-6.447837-3.46619 0.239089-0.19706 0.513615-0.3683 0.801144-0.491 0.387615-0.16473 0.814055-0.25521 1.263076-0.25521 0.442557 0 0.878703 0.0907 1.263076 0.24871 0.397321 0.16794 0.752703 0.41023 1.053107 0.71388 0.297144 0.30044 0.539437 0.66223 0.700966 1.06602 0.293939-0.29394 0.536232-0.64282 0.704171-1.03049 0.164734-0.39411 0.25841-0.82376 0.25841-1.27599 0-0.42644-0.08424-0.83988-0.235792-1.2114 0.42644 0 0.833468-0.0842 1.208162-0.23579 0.400526-0.15832 0.759113-0.39732 1.062785-0.69456 0.293939-0.29393 0.533028-0.6267 0.700967-1.01433-0.167939-0.38762-0.407028-0.72679-0.704263-1.01757-0.30044-0.29724-0.652526-0.53944-1.053107-0.70097-0.371498-0.14861-0.801143-0.23909-1.227538-0.23909 0.148618-0.3747 0.232587-0.77852 0.232587-1.20492 0-0.45227-0.09367-0.88512-0.261706-1.276-0.167939-0.38762-0.407027-0.73979-0.704263-1.03049-0.161529 0.40053-0.400526 0.76241-0.700966 1.06603-0.297144 0.30364-0.652526 0.54594-1.049874 0.71067-0.38441 0.16153-0.807554 0.252-1.250156 0.252-0.445761 0-0.904526-0.10018-1.292149-0.26491-0.281028-0.1195-0.542734-0.27462-0.775321-0.46518 0.177645-0.3747 0.423144-0.69135 0.723584-0.96911 0.310146-0.28424 0.68485-0.52653 1.088636-0.67194 0.07142-0.0293 0.145412-0.0485 0.219675-0.0678 0.07143-1.84455-1.450437-3.36282-3.23361-3.36282-0.432851 0-0.846379 0.0842-1.224306 0.23909-0.439351-1.26308-1.634574-2.16759-3.046248-2.16759-1.7864 0-3.2336 1.45044-3.2336 3.23685 1.78316 0 3.2336 1.4149 3.2336 3.20129 0 1.20493 0.659025 2.25481 1.637796 2.81043l2.590764 5.15891c0 0.0101 0 0.0192-0.0032 0.032-0.206764 1.98345 0.25841 3.88292 1.214627 5.46903-0.507205 0.18415-0.878703 0.68806-0.878703 1.25985 0 0.56205 0.352085 1.04341 0.849584 1.234-0.940037 0.52652-1.560275 1.52474-1.560275 2.67798 0 1.15647 0.633113 2.16112 1.573195 2.68768-0.503908 0.18735-0.8657 0.678337-0.8657 1.246917 0 0.56855 0.358587 1.07248 0.862495 1.25662l58.075707 3e-3c0.50391-0.18735 0.8657-0.67194 0.8657-1.24047 0-0.56855-0.36499-1.059557-0.86899-1.246917 0.94004-0.52653 1.57319-1.53443 1.57319-2.68767 0-1.15325-0.6235-2.15143-1.56027-2.68122 0.4975-0.18735 0.84958-0.66873 0.84958-1.23077 0-0.57176-0.3715-1.07571-0.8787-1.25985 0.9562-1.58612 1.42137-3.48558 1.21462-5.46902-3e-3 -0.0128-3e-3 -0.0229-3e-3 -0.0357z" fill="#ffc61e"/>
   <path d="m99.60774 83.032233c0-1.7864-1.44721-3.23361-3.23361-3.23361-1.78317 0-3.2336 1.44721-3.2336 3.23361s1.45043 3.23361 3.2336 3.23361c1.7864 0 3.23361-1.44721 3.23361-3.23361z" fill="#fff"/>
   <path d="m32.683063 83.032233c0-1.7864 1.447205-3.23361 3.233611-3.23361 1.783165 0 3.230369 1.44721 3.230369 3.23361s-1.447204 3.23361-3.230369 3.23361c-1.786406 0-3.233611-1.44721-3.233611-3.23361z" fill="#fff"/>
   <path d="m77.964682 96.963233c0-1.21462 1.46335-2.19989 3.26914-2.19989 1.80578 0 3.26914 0.98527 3.26914 2.19989 0 1.21461-1.46336 2.19989-3.26914 2.19989-1.80579 0-3.26914-0.98528-3.26914-2.19989z" fill="#0072c6"/>
  </g>
  <g fill="#fff">
   <path d="m60.292121 96.983583 5.853711 2.61984 5.853176-2.61984-5.853176-2.66506z" stroke-width="1.412" style="paint-order:markers fill stroke"/>
   <path d="m92.329967 98.961863-4.42884-1.97699 4.45468-2.0319c0.65253 0.41994 1.08864 1.15324 1.08864 1.98991 0 0.85279-0.43606 1.60549-1.11448 2.01898z" stroke-width="1.41168"/>
   <path d="m39.984312 98.955533 4.406234-1.97376-4.454693-2.02868c-0.652526 0.41994-1.088636 1.15325-1.088636 1.98669 0 0.85608 0.458673 1.60226 1.137095 2.01575z" stroke-width="1.41168"/>
  </g>
  <g stroke-width="1.41168">
   <path d="m47.788634 96.963233c0-1.21462 1.463357-2.19989 3.26914-2.19989 1.805782 0 3.269139 0.98527 3.269139 2.19989 0 1.21461-1.463357 2.19989-3.269139 2.19989-1.805783 0-3.26914-0.98528-3.26914-2.19989z" fill="#0072c6"/>
   <path d="m62.909698 81.458073c0-1.78639 1.447204-3.23361 3.233611-3.23361 1.783164 0 3.233601 1.44722 3.233601 3.23361 0 1.7864-1.450437 3.23361-3.233601 3.23361-1.786407 0-3.233611-1.44721-3.233611-3.23361z" fill="#fff"/>
   <path d="m38.895991 92.605453h54.499683" fill="none"/>
  </g>
 </g>
</svg>
