<?xml version="1.0" encoding="UTF-8" standalone="no"?>
<svg
   xmlns:dc="http://purl.org/dc/elements/1.1/"
   xmlns:cc="http://creativecommons.org/ns#"
   xmlns:rdf="http://www.w3.org/1999/02/22-rdf-syntax-ns#"
   xmlns:svg="http://www.w3.org/2000/svg"
   xmlns="http://www.w3.org/2000/svg"
   xmlns:sodipodi="http://sodipodi.sourceforge.net/DTD/sodipodi-0.dtd"
   xmlns:inkscape="http://www.inkscape.org/namespaces/inkscape"
   width="499.99997"
   height="757"
   viewBox="0 0 132.29166 200.28959"
   version="1.1"
   id="svg847"
   sodipodi:docname="JYVäsky.svg"
   inkscape:version="1.0.2 (e86c870879, 2021-01-15, custom)">
  <defs
     id="defs841" />
  <sodipodi:namedview
     id="base"
     pagecolor="#ffffff"
     bordercolor="#666666"
     borderopacity="1.0"
     inkscape:pageopacity="0.0"
     inkscape:pageshadow="2"
     inkscape:zoom="1.4"
     inkscape:cx="321.41857"
     inkscape:cy="533.37914"
     inkscape:document-units="px"
     inkscape:current-layer="layer1"
     inkscape:document-rotation="0"
     showgrid="false"
     inkscape:snap-smooth-nodes="true"
     inkscape:showpageshadow="false"
     borderlayer="true"
     units="px"
     inkscape:window-width="1920"
     inkscape:window-height="1017"
     inkscape:window-x="-8"
     inkscape:window-y="-4"
     inkscape:window-maximized="1"
     inkscape:object-paths="false"
     inkscape:snap-global="true" />
  <metadata
     id="metadata844">
    <rdf:RDF>
      <cc:Work
         rdf:about="">
        <dc:format>image/svg+xml</dc:format>
        <dc:type
           rdf:resource="http://purl.org/dc/dcmitype/StillImage" />
        <dc:title></dc:title>
      </cc:Work>
    </rdf:RDF>
  </metadata>
  <g
     inkscape:label="Layer 1"
     inkscape:groupmode="layer"
     id="layer1"
     transform="translate(-30.721133,-16.820835)">
    <g
       id="g2621"
       transform="matrix(0.97223055,0,0,0.97157409,0.85327363,0.47836698)"
       style="stroke-width:0.272232;stroke-miterlimit:4;stroke-dasharray:none">
      <path
         style="font-variation-settings:normal;opacity:1;vector-effect:none;fill:#e5e5e5;fill-opacity:1;stroke:none;stroke-width:0.272232;stroke-linecap:butt;stroke-linejoin:miter;stroke-miterlimit:4;stroke-dasharray:none;stroke-dashoffset:0;stroke-opacity:1;stop-color:#000000;stop-opacity:1"
         d="m 34.405184,72.945146 c 0,0 3.39856,66.032394 5.41062,95.104954 2.04153,29.49828 25.8767,54.7159 58.94029,54.7159 33.063596,0 56.898756,-25.21762 58.940286,-54.7159 2.01207,-29.07256 5.41062,-95.104954 5.41062,-95.104954 z"
         id="path846"
         sodipodi:nodetypes="cszscc" />
      <path
         id="path2223"
         style="font-variation-settings:normal;opacity:1;vector-effect:none;fill:#0473a9;fill-opacity:1;stroke:none;stroke-width:1.0289;stroke-linecap:butt;stroke-linejoin:miter;stroke-miterlimit:4;stroke-dasharray:none;stroke-dashoffset:0;stroke-opacity:1;stop-color:#000000;stop-opacity:1"
         d="m 130.03516,275.69727 c 0,0 8.17349,158.76403 15.34179,278.80273 H 601.125 c 7.16831,-120.0387 15.3418,-278.80273 15.3418,-278.80273 z"
         transform="scale(0.26458333)" />
      <path
         style="font-variation-settings:normal;opacity:1;vector-effect:none;fill:#e0b96b;fill-opacity:1;stroke:#000000;stroke-width:0.272232;stroke-linecap:butt;stroke-linejoin:miter;stroke-miterlimit:4;stroke-dasharray:none;stroke-dashoffset:0;stroke-opacity:1;stop-color:#000000;stop-opacity:1"
         d="m 160.44585,68.61421 v -9.285671 -4.860095 l 1.61144,-27.284209 c 0.32364,-5.479724 2.97657,-6.466415 4.53572,-7.17512 -1.63426,-2.597328 -8.69522,-3.825854 -10.90851,1.940395 -1.00979,-0.362975 -2.01958,-0.63248 -3.02937,-0.806467 -0.78187,4.753976 0.48425,8.369205 3.33615,13.422709 -4.51038,-2.936783 -9.62714,-4.619962 -13.00188,-4.880261 -0.29333,1.018093 -0.32123,2.036187 -0.35263,3.05428 -2.99575,2.233325 -4.3646,3.862142 -5.66112,6.548849 1.29652,2.686707 2.66537,4.315524 5.66112,6.548849 0.0314,1.018093 0.0593,2.036187 0.35263,3.05428 3.37474,-0.260299 8.4915,-1.943478 13.00188,-4.880261 -0.6947,2.07034 -3.08501,7.103809 -11.3063,7.103809 -8.21826,0 -11.61178,-5.57742 -12.89306,-9.421251 h -2.0568 -2.0568 c -1.28128,3.843831 -4.6748,9.421251 -12.89306,9.421251 -8.22129,0 -10.6116,-5.033469 -11.3063,-7.103809 4.51038,2.936783 9.62714,4.619962 13.00188,4.880261 0.29333,-1.018093 0.32123,-2.036187 0.35263,-3.05428 2.99575,-2.233325 4.3646,-3.862142 5.66112,-6.548849 -1.29652,-2.686707 -2.66537,-4.315524 -5.66112,-6.548849 -0.0314,-1.018093 -0.0593,-2.036187 -0.35263,-3.05428 -3.37474,0.260299 -8.4915,1.943478 -13.00188,4.880261 2.93678,-4.17367 4.61996,-8.908453 4.88026,-12.031262 -1.01809,-0.271435 -2.03619,-0.297245 -3.05428,-0.326305 -2.23332,-2.772111 -3.86214,-4.038773 -6.548849,-5.238505 -2.68671,1.199732 -4.31553,2.466394 -6.54885,5.238505 -1.01809,0.02906 -2.03619,0.05487 -3.05428,0.326305 0.2603,3.122809 1.94348,7.857592 4.88026,12.031262 -4.51038,-2.936783 -9.62714,-4.619962 -13.00188,-4.880261 -0.29333,1.018093 -0.32123,2.036187 -0.35263,3.05428 -2.99575,2.233325 -4.3646,3.862142 -5.66112,6.548849 1.29652,2.686707 2.66537,4.315524 5.66112,6.548849 0.0314,1.018093 0.0593,2.036187 0.35263,3.05428 3.37474,-0.260299 8.4915,-1.943478 13.00188,-4.880261 -0.6947,2.07034 -3.08501,7.103809 -11.3063,7.103809 -8.21826,0 -11.61178,-5.57742 -12.89306,-9.421251 h -2.0568 -2.0568 c -1.28128,3.843831 -4.6748,9.421251 -12.89306,9.421251 -8.22129,0 -10.6116,-5.033469 -11.3063,-7.103809 4.51038,2.936783 9.62714,4.619962 13.00188,4.880261 0.29333,-1.018093 0.32123,-2.036187 0.35263,-3.05428 2.99575,-2.233325 4.3646,-3.862142 5.66112,-6.548849 -1.29652,-2.686707 -2.66537,-4.315524 -5.66112,-6.548849 -0.0314,-1.018093 -0.0593,-2.036187 -0.35263,-3.05428 -3.37474,0.260299 -8.4915,1.943478 -13.00188,4.880261 2.8519,-5.053504 4.11802,-8.668733 3.33615,-13.422709 -1.00979,0.173987 -2.01958,0.443492 -3.02937,0.806467 -2.21329,-5.766249 -9.27425,-4.537723 -10.90851,-1.940395 1.55915,0.708705 4.21208,1.695396 4.53572,7.17512 l 1.61144,27.284209 v 4.860095 9.285671 z"
         id="path963"
         sodipodi:nodetypes="ccccccccccccccscccscccccccccccccccccccscccsccccccccccccccc" />
      <path
         id="rect848"
         style="opacity:1;fill:#e0b96b;fill-opacity:1;stroke:#000000;stroke-width:0.272232;stroke-linejoin:round;stroke-miterlimit:4;stroke-dasharray:none;stroke-dashoffset:2.69999"
         d="m 160.44585,72.945144 c 1.34625,0 2.14657,-1.083801 2.14657,-2.430048 0,-1.346247 -0.80032,-2.430048 -2.14657,-2.430048 H 98.756092 37.066331 c -1.34625,0 -2.14657,1.083801 -2.14657,2.430048 0,1.346247 0.80032,2.430048 2.14657,2.430048 h 61.689761 z"
         sodipodi:nodetypes="ssscssscs" />
      <path
         id="path906"
         style="opacity:1;fill:#e0b96b;fill-opacity:1;stroke:#000000;stroke-width:0.272232;stroke-linejoin:round;stroke-miterlimit:4;stroke-dasharray:none;stroke-dashoffset:2.69999"
         d="m 37.066331,59.328542 c -1.34625,0 -2.14657,-1.083801 -2.14657,-2.430048 0,-1.346247 0.80032,-2.430048 2.14657,-2.430048 h 61.689758 61.689761 c 1.34625,0 2.14657,1.083801 2.14657,2.430048 0,1.346247 -0.80032,2.430048 -2.14657,2.430048 H 98.756089 Z"
         sodipodi:nodetypes="ssscssscs" />
      <path
         style="color:#000000;font-style:normal;font-variant:normal;font-weight:normal;font-stretch:normal;font-size:medium;line-height:normal;font-family:sans-serif;font-variant-ligatures:normal;font-variant-position:normal;font-variant-caps:normal;font-variant-numeric:normal;font-variant-alternates:normal;font-variant-east-asian:normal;font-feature-settings:normal;font-variation-settings:normal;text-indent:0;text-align:start;text-decoration:none;text-decoration-line:none;text-decoration-style:solid;text-decoration-color:#000000;letter-spacing:normal;word-spacing:normal;text-transform:none;writing-mode:lr-tb;direction:ltr;text-orientation:mixed;dominant-baseline:auto;baseline-shift:baseline;text-anchor:start;white-space:normal;shape-padding:0;shape-margin:0;inline-size:0;clip-rule:nonzero;display:inline;overflow:visible;visibility:visible;opacity:1;isolation:auto;mix-blend-mode:normal;color-interpolation:sRGB;color-interpolation-filters:linearRGB;solid-color:#000000;solid-opacity:1;vector-effect:none;fill:#000000;fill-opacity:1;fill-rule:nonzero;stroke:none;stroke-width:0.272232;stroke-linecap:butt;stroke-linejoin:miter;stroke-miterlimit:4;stroke-dasharray:none;stroke-dashoffset:0;stroke-opacity:1;color-rendering:auto;image-rendering:auto;shape-rendering:auto;text-rendering:auto;enable-background:accumulate;stop-color:#000000;stop-opacity:1"
         d="M 98.589844,39.123047 82.105469,39.288086 98.756834,39.453125 115.4082,39.288086 98.921875,39.123047 98.755859,22.636719 Z m -62.507813,0 v 0.330078 l 16.650391,-0.165039 z m 125.349609,0.330078 v -0.330078 l -16.65234,0.165039 z"
         id="path1004"
         sodipodi:nodetypes="ccccccccccccccc" />
      <g
         id="g1356"
         style="stroke-width:0.272232;stroke-miterlimit:4;stroke-dasharray:none">
        <ellipse
           style="opacity:1;fill:#e5e5e5;fill-opacity:1;stroke:#000000;stroke-width:0.272232;stroke-linejoin:round;stroke-miterlimit:4;stroke-dasharray:none;stroke-dashoffset:2.69999"
           id="ellipse984"
           cx="-36.081303"
           cy="39.28862"
           rx="3.1009822"
           ry="4.0179877"
           transform="scale(-1,1)" />
        <path
           id="path1329-0"
           style="fill:#000000;fill-opacity:1;stroke:none;stroke-width:0.272232;stroke-linejoin:round;stroke-miterlimit:4;stroke-dasharray:none;stroke-dashoffset:2.69999"
           d="m 36.081273,43.013697 c -1.671205,1.53e-4 -3.026046,-1.842308 -3.051382,-3.884611 -0.02526,2.378641 1.35219,4.177443 3.051382,4.177522 1.699193,-7.9e-5 3.076645,-1.798881 3.051183,-4.177522 -0.02553,2.042096 -1.380134,3.884473 -3.051183,3.884611 z"
           sodipodi:nodetypes="scccs" />
      </g>
      <path
         style="font-variation-settings:normal;opacity:1;vector-effect:none;fill:none;fill-opacity:1;stroke:#000000;stroke-width:0.272232;stroke-linecap:round;stroke-linejoin:miter;stroke-miterlimit:4;stroke-dasharray:none;stroke-dashoffset:0;stroke-opacity:1;stop-color:#000000;stop-opacity:1"
         d="m 37.770261,47.498201 c 1.66367,2.59986 5.76235,6.970243 14.51729,6.970243 12.46149,0 15.48951,-8.854287 15.48951,-8.854287 0,0 3.02802,8.854287 15.48952,8.854287 12.46149,0 15.489509,-8.854287 15.489509,-8.854287 0,0 3.02802,8.854287 15.48951,8.854287 12.4615,0 15.48952,-8.854287 15.48952,-8.854287 0,0 3.02802,8.854287 15.48951,8.854287 8.75494,0 12.85362,-4.370383 14.51729,-6.970243"
         id="path1071"
         sodipodi:nodetypes="csczczcsc" />
      <path
         id="rect1073"
         style="fill:#d41132;fill-opacity:1;stroke:#000000;stroke-width:0.272232;stroke-linejoin:miter;stroke-miterlimit:4;stroke-dasharray:none;stroke-dashoffset:2.69999"
         d="m 148.36906,63.706803 12.07679,-3.475644 1.87142,3.475635 -1.87143,3.475644 z"
         sodipodi:nodetypes="ccccc" />
      <path
         id="path1096"
         style="fill:#d41132;fill-opacity:1;stroke:#000000;stroke-width:0.272232;stroke-linejoin:miter;stroke-miterlimit:4;stroke-dasharray:none;stroke-dashoffset:2.69999"
         d="m 49.143121,63.706803 -12.07679,-3.475644 -1.87142,3.475635 1.87143,3.475644 z"
         sodipodi:nodetypes="ccccc" />
      <path
         id="path1098"
         style="fill:#d41132;fill-opacity:1;stroke:#000000;stroke-width:0.272232;stroke-linejoin:miter;stroke-miterlimit:4;stroke-dasharray:none;stroke-dashoffset:2.69999"
         d="M 109.83009,63.706803 98.592055,60.231159 87.354018,63.706794 98.592055,67.182438 Z"
         sodipodi:nodetypes="ccccc" />
      <path
         id="path1113"
         style="opacity:1;fill:#0473a9;fill-opacity:1;stroke:#000000;stroke-width:0.272232;stroke-linejoin:round;stroke-miterlimit:4;stroke-dasharray:none;stroke-dashoffset:2.69999"
         d="m 125.91625,66.341291 c -1.45952,0 -2.32716,-1.174985 -2.32716,-2.634494 0,-1.45951 0.86764,-2.634494 2.32716,-2.634494 h 3.81887 3.81886 c 1.45951,0 2.32716,1.174984 2.32716,2.634494 0,1.459509 -0.86765,2.634494 -2.32716,2.634494 h -3.81886 z"
         sodipodi:nodetypes="ssscssscs" />
      <path
         id="path1141"
         style="opacity:1;fill:#0473a9;fill-opacity:1;stroke:#000000;stroke-width:0.272232;stroke-linejoin:round;stroke-miterlimit:4;stroke-dasharray:none;stroke-dashoffset:2.69999"
         d="m 71.595931,66.341291 c 1.45952,0 2.32716,-1.174985 2.32716,-2.634494 0,-1.45951 -0.86764,-2.634494 -2.32716,-2.634494 h -3.81887 -3.81886 c -1.45951,0 -2.32716,1.174984 -2.32716,2.634494 0,1.459509 0.86765,2.634494 2.32716,2.634494 h 3.81886 z"
         sodipodi:nodetypes="ssscssscs" />
      <g
         id="g1149"
         transform="translate(0.25784184,0.22551)"
         style="fill:#ffffff;stroke-width:0.272232;stroke-miterlimit:4;stroke-dasharray:none">
        <circle
           style="opacity:1;fill:#e5e5e5;fill-opacity:1;stroke:#000000;stroke-width:0.272232;stroke-linejoin:round;stroke-miterlimit:4;stroke-dasharray:none;stroke-dashoffset:2.69999"
           id="circle1143"
           cx="141.69424"
           cy="61.741116"
           r="1.5146633" />
        <circle
           style="opacity:1;fill:#e5e5e5;fill-opacity:1;stroke:#000000;stroke-width:0.272232;stroke-linejoin:round;stroke-miterlimit:4;stroke-dasharray:none;stroke-dashoffset:2.69999"
           id="circle1145"
           cx="141.69424"
           cy="65.221458"
           r="1.5146633" />
      </g>
      <g
         id="g1157"
         transform="matrix(-1,0,0,1,259.21239,0.22551)"
         style="fill:#ffffff;stroke-width:0.272232;stroke-miterlimit:4;stroke-dasharray:none">
        <circle
           style="opacity:1;fill:#e5e5e5;fill-opacity:1;stroke:#000000;stroke-width:0.272232;stroke-linejoin:round;stroke-miterlimit:4;stroke-dasharray:none;stroke-dashoffset:2.69999"
           id="circle1153"
           cx="141.69424"
           cy="61.741116"
           r="1.5146633" />
        <circle
           style="opacity:1;fill:#e5e5e5;fill-opacity:1;stroke:#000000;stroke-width:0.272232;stroke-linejoin:round;stroke-miterlimit:4;stroke-dasharray:none;stroke-dashoffset:2.69999"
           id="circle1155"
           cx="141.69424"
           cy="65.221458"
           r="1.5146633" />
      </g>
      <g
         id="g1209"
         transform="matrix(-1,0,0,1,197.25434,0.22551)"
         style="fill:#ffffff;stroke-width:0.272232;stroke-miterlimit:4;stroke-dasharray:none">
        <circle
           style="opacity:1;fill:#e5e5e5;fill-opacity:1;stroke:#000000;stroke-width:0.272232;stroke-linejoin:round;stroke-miterlimit:4;stroke-dasharray:none;stroke-dashoffset:2.69999"
           id="circle1205"
           cx="141.69424"
           cy="61.741116"
           r="1.5146633" />
        <circle
           style="opacity:1;fill:#e5e5e5;fill-opacity:1;stroke:#000000;stroke-width:0.272232;stroke-linejoin:round;stroke-miterlimit:4;stroke-dasharray:none;stroke-dashoffset:2.69999"
           id="circle1207"
           cx="141.69424"
           cy="65.221458"
           r="1.5146633" />
      </g>
      <g
         id="g1215"
         transform="translate(-61.700209,0.22551)"
         style="fill:#ffffff;stroke-width:0.272232;stroke-miterlimit:4;stroke-dasharray:none">
        <circle
           style="opacity:1;fill:#e5e5e5;fill-opacity:1;stroke:#000000;stroke-width:0.272232;stroke-linejoin:round;stroke-miterlimit:4;stroke-dasharray:none;stroke-dashoffset:2.69999"
           id="circle1211"
           cx="141.69424"
           cy="61.741116"
           r="1.5146633" />
        <circle
           style="opacity:1;fill:#e5e5e5;fill-opacity:1;stroke:#000000;stroke-width:0.272232;stroke-linejoin:round;stroke-miterlimit:4;stroke-dasharray:none;stroke-dashoffset:2.69999"
           id="circle1213"
           cx="141.69424"
           cy="65.221458"
           r="1.5146633" />
      </g>
      <path
         id="path1262"
         style="opacity:1;fill:#000000;fill-opacity:1;stroke:none;stroke-width:1.0289;stroke-linejoin:round;stroke-miterlimit:4;stroke-dasharray:none;stroke-dashoffset:2.69999"
         d="m 140.09375,224.23438 h 233.1582 233.15821 c 5.08819,0 8.11328,-4.09737 8.11328,-9.18555 -0.46774,4.47557 -3.46134,7.90234 -8.11328,7.90234 H 373.25195 140.09375 c -4.65192,0 -7.64578,-3.42621 -8.11341,-7.90204 1.3e-4,5.08788 3.02522,9.18525 8.11341,9.18525 z"
         transform="scale(0.26458333)"
         sodipodi:nodetypes="scscscscs" />
      <path
         id="path1277"
         style="opacity:1;fill:#000000;fill-opacity:1;stroke:none;stroke-width:0.272232;stroke-linejoin:round;stroke-miterlimit:4;stroke-dasharray:none;stroke-dashoffset:2.69999"
         d="m 37.066301,72.945144 h 61.689773 61.689776 c 1.34625,0 2.14664,-1.084096 2.14664,-2.430343 -0.12376,1.184161 -0.91581,2.090827 -2.14664,2.090827 H 98.756074 37.066301 c -1.23082,0 -2.022946,-0.906518 -2.146673,-2.090748 3.5e-5,1.346168 0.800423,2.430264 2.146673,2.430264 z"
         sodipodi:nodetypes="scscscscs" />
      <g
         id="g1308"
         style="stroke-width:0.272232;stroke-miterlimit:4;stroke-dasharray:none">
        <circle
           style="opacity:1;fill:#e5e5e5;fill-opacity:1;stroke:#000000;stroke-width:0.272232;stroke-linejoin:round;stroke-miterlimit:4;stroke-dasharray:none;stroke-dashoffset:2.69999"
           id="circle978"
           cx="129.73512"
           cy="39.28862"
           r="4.0179877" />
        <path
           id="circle1290"
           style="opacity:1;fill:#000000;fill-opacity:1;stroke:none;stroke-width:1.0289;stroke-linejoin:round;stroke-miterlimit:4;stroke-dasharray:none;stroke-dashoffset:2.69999"
           d="m 490.33789,162.63763 c -8.24848,5.8e-4 -14.9355,-7.03002 -15.06055,-14.74896 -0.12469,8.99014 6.67393,15.78876 15.06055,15.78906 8.38662,-3e-4 15.18524,-6.79892 15.05957,-15.78906 -0.12603,7.71816 -6.81186,14.74844 -15.05957,14.74896 z"
           transform="scale(0.26458333)"
           sodipodi:nodetypes="scccs" />
      </g>
      <g
         id="g1314"
         transform="translate(-30.979027)"
         style="stroke-width:0.272232;stroke-miterlimit:4;stroke-dasharray:none">
        <circle
           style="opacity:1;fill:#e5e5e5;fill-opacity:1;stroke:#000000;stroke-width:0.272232;stroke-linejoin:round;stroke-miterlimit:4;stroke-dasharray:none;stroke-dashoffset:2.69999"
           id="circle1310"
           cx="129.73512"
           cy="39.28862"
           r="4.0179877" />
        <path
           id="path1312"
           style="opacity:1;fill:#000000;fill-opacity:1;stroke:none;stroke-width:1.0289;stroke-linejoin:round;stroke-miterlimit:4;stroke-dasharray:none;stroke-dashoffset:2.69999"
           d="m 490.33789,162.63763 c -8.24848,5.8e-4 -14.9355,-7.03002 -15.06055,-14.74896 -0.12469,8.99014 6.67393,15.78876 15.06055,15.78906 8.38662,-3e-4 15.18524,-6.79892 15.05957,-15.78906 -0.12603,7.71816 -6.81186,14.74844 -15.05957,14.74896 z"
           transform="scale(0.26458333)"
           sodipodi:nodetypes="scccs" />
      </g>
      <g
         id="g1331"
         transform="translate(-61.958061)"
         style="stroke-width:0.272232;stroke-miterlimit:4;stroke-dasharray:none">
        <circle
           style="opacity:1;fill:#e5e5e5;fill-opacity:1;stroke:#000000;stroke-width:0.272232;stroke-linejoin:round;stroke-miterlimit:4;stroke-dasharray:none;stroke-dashoffset:2.69999"
           id="circle1327"
           cx="129.73512"
           cy="39.28862"
           r="4.0179877" />
        <path
           id="path1329"
           style="opacity:1;fill:#000000;fill-opacity:1;stroke:none;stroke-width:1.0289;stroke-linejoin:round;stroke-miterlimit:4;stroke-dasharray:none;stroke-dashoffset:2.69999"
           d="m 490.33789,162.63763 c -8.24848,5.8e-4 -14.9355,-7.03002 -15.06055,-14.74896 -0.12469,8.99014 6.67393,15.78876 15.06055,15.78906 8.38662,-3e-4 15.18524,-6.79892 15.05957,-15.78906 -0.12603,7.71816 -6.81186,14.74844 -15.05957,14.74896 z"
           transform="scale(0.26458333)"
           sodipodi:nodetypes="scccs" />
      </g>
      <g
         id="g1371"
         transform="translate(125.34958)"
         style="stroke-width:0.272232;stroke-miterlimit:4;stroke-dasharray:none">
        <ellipse
           style="opacity:1;fill:#e5e5e5;fill-opacity:1;stroke:#000000;stroke-width:0.272232;stroke-linejoin:round;stroke-miterlimit:4;stroke-dasharray:none;stroke-dashoffset:2.69999"
           id="ellipse1367"
           cx="-36.081303"
           cy="39.28862"
           rx="3.1009822"
           ry="4.0179877"
           transform="scale(-1,1)" />
        <path
           id="path1369"
           style="fill:#000000;fill-opacity:1;stroke:none;stroke-width:0.272232;stroke-linejoin:round;stroke-miterlimit:4;stroke-dasharray:none;stroke-dashoffset:2.69999"
           d="m 36.081273,43.013697 c -1.671205,1.53e-4 -3.026046,-1.842308 -3.051382,-3.884611 -0.02526,2.378641 1.35219,4.177443 3.051382,4.177522 1.699193,-7.9e-5 3.076645,-1.798881 3.051183,-4.177522 -0.02553,2.042096 -1.380134,3.884473 -3.051183,3.884611 z"
           sodipodi:nodetypes="scccs" />
      </g>
      <g
         id="g1593"
         style="stroke-width:0.272232;stroke-miterlimit:4;stroke-dasharray:none">
        <path
           style="font-variation-settings:normal;opacity:1;vector-effect:none;fill:none;fill-opacity:1;stroke:#000000;stroke-width:1.0289;stroke-linecap:butt;stroke-linejoin:miter;stroke-miterlimit:4;stroke-dasharray:none;stroke-dashoffset:0;stroke-opacity:1;stop-color:#000000;stop-opacity:1"
           d="m 338.88867,700.25781 -0.01,0.0234"
           transform="scale(0.26458333)"
           id="path1519" />
        <path
           style="font-variation-settings:normal;opacity:1;vector-effect:none;fill:none;fill-opacity:1;stroke:#000000;stroke-width:1.0289;stroke-linecap:butt;stroke-linejoin:miter;stroke-miterlimit:4;stroke-dasharray:none;stroke-dashoffset:0;stroke-opacity:1;stop-color:#000000;stop-opacity:1"
           d="m 338.88843,700.25777 2.4e-4,4e-5"
           transform="scale(0.26458333)"
           id="path1517" />
        <path
           style="font-variation-settings:normal;opacity:1;vector-effect:none;fill:none;fill-opacity:1;stroke:#000000;stroke-width:1.0289;stroke-linecap:butt;stroke-linejoin:miter;stroke-miterlimit:4;stroke-dasharray:none;stroke-dashoffset:0;stroke-opacity:1;stop-color:#000000;stop-opacity:1"
           d="m 311.07617,691.21875 -0.01,0.0137"
           transform="scale(0.26458333)"
           id="path1511" />
        <path
           style="font-variation-settings:normal;opacity:1;vector-effect:none;fill:none;fill-opacity:1;stroke:#000000;stroke-width:1.0289;stroke-linecap:butt;stroke-linejoin:miter;stroke-miterlimit:4;stroke-dasharray:none;stroke-dashoffset:0;stroke-opacity:1;stop-color:#000000;stop-opacity:1"
           d="m 311.07593,691.21878 2.4e-4,-3e-5"
           transform="scale(0.26458333)"
           id="path1509" />
        <path
           style="font-variation-settings:normal;opacity:1;vector-effect:none;fill:none;fill-opacity:1;stroke:#000000;stroke-width:1.0289;stroke-linecap:butt;stroke-linejoin:miter;stroke-miterlimit:4;stroke-dasharray:none;stroke-dashoffset:0;stroke-opacity:1;stop-color:#000000;stop-opacity:1"
           d="m 277.54297,675.89648 -0.0215,0.0215"
           transform="scale(0.26458333)"
           id="path1527" />
        <path
           style="font-variation-settings:normal;opacity:1;vector-effect:none;fill:none;fill-opacity:1;stroke:#000000;stroke-width:1.0289;stroke-linecap:butt;stroke-linejoin:miter;stroke-miterlimit:4;stroke-dasharray:none;stroke-dashoffset:0;stroke-opacity:1;stop-color:#000000;stop-opacity:1"
           d="m 277.54296,675.89649 1e-5,-10e-6"
           transform="scale(0.26458333)"
           id="path1525" />
        <path
           style="font-variation-settings:normal;opacity:1;vector-effect:none;fill:none;fill-opacity:1;stroke:#000000;stroke-width:1.0289;stroke-linecap:butt;stroke-linejoin:miter;stroke-miterlimit:4;stroke-dasharray:none;stroke-dashoffset:0;stroke-opacity:1;stop-color:#000000;stop-opacity:1"
           d="m 252.41797,654.83594 -0.0234,0.0176"
           transform="scale(0.26458333)"
           id="path1535" />
        <path
           style="font-variation-settings:normal;opacity:1;vector-effect:none;fill:none;fill-opacity:1;stroke:#000000;stroke-width:1.0289;stroke-linecap:butt;stroke-linejoin:miter;stroke-miterlimit:4;stroke-dasharray:none;stroke-dashoffset:0;stroke-opacity:1;stop-color:#000000;stop-opacity:1"
           d="m 252.41801,654.83596 -4e-5,-2e-5"
           transform="scale(0.26458333)"
           id="path1533" />
        <path
           style="font-variation-settings:normal;opacity:1;vector-effect:none;fill:#8a502a;fill-opacity:1;stroke:#000000;stroke-width:0.272232;stroke-linecap:butt;stroke-linejoin:miter;stroke-miterlimit:4;stroke-dasharray:none;stroke-dashoffset:0;stroke-opacity:1;stop-color:#000000;stop-opacity:1"
           d="m 96.878844,191.49303 3.753516,-8.4e-4 c 2.01368,-2.44172 4.20402,-4.46198 7.21686,-6.21244 0.48894,0.37134 0.98184,0.70439 1.47923,0.97679 2.36868,-0.75301 4.2142,-1.73026 5.87948,-3.36976 0.47649,0.333 0.97202,0.65514 1.49111,0.9597 3.37094,-1.05369 5.31812,-2.27004 7.38275,-5.01303 0.57905,0.29241 1.15148,0.56333 1.70764,0.79643 2.59631,-1.39036 4.2845,-3.9539 4.94027,-6.36955 0.35421,0.15102 0.71118,0.30409 1.07332,0.45587 2.69654,-1.69104 4.16309,-4.35362 4.92218,-7.76903 -1.0458,-0.23226 -2.07552,-0.47477 -3.28094,-0.90227 0,0 -0.54471,-4.68424 -0.69505,-5.78673 -0.46649,-0.62853 -1.72076,-1.80169 -2.45514,-2.40502 -0.0501,1.1526 -0.28577,7.1236 -0.28577,7.1236 -2.90136,-1.01839 -6.39808,-2.424 -10.126,-4.3894 -7.18067,-3.78572 -10.45789,-6.48956 -18.27124,-7.7401 l -5.710006,8.4e-4 c -7.81335,1.25054 -11.09057,3.95438 -18.27124,7.7401 -3.72792,1.9654 -7.22464,3.37101 -10.126,4.3894 0,0 -0.23565,-5.971 -0.28577,-7.1236 -0.73438,0.60333 -1.98864,1.77649 -2.45514,2.40502 -0.15034,1.10249 -0.69505,5.78673 -0.69505,5.78673 -1.20542,0.4275 -2.23514,0.67001 -3.28094,0.90227 0.75909,3.41541 2.22564,6.07799 4.92218,7.76903 0.36214,-0.15178 0.71912,-0.30485 1.07342,-0.45587 0.65587,2.41565 2.34406,4.97919 4.94037,6.36955 0.55616,-0.2331 1.12859,-0.50402 1.70749,-0.79643 2.06448,2.74299 4.01166,3.95934 7.3826,5.01303 0.51909,-0.30456 1.01462,-0.6267 1.49091,-0.9597 1.66508,1.6395 3.5106,2.61675 5.87927,3.36976 0.4974,-0.2724 0.99029,-0.60545 1.47903,-0.97679 3.01264,1.75046 5.20298,3.77072 7.21666,6.21244 z"
           id="path1542"
           sodipodi:nodetypes="cccccccccccccccsccscccccccccccccc" />
        <path
           id="path1540"
           style="font-variation-settings:normal;opacity:1;vector-effect:none;fill:none;fill-opacity:1;stroke:#000000;stroke-width:0.272232;stroke-linecap:butt;stroke-linejoin:miter;stroke-miterlimit:4;stroke-dasharray:none;stroke-dashoffset:0;stroke-opacity:1;stop-color:#000000;stop-opacity:1"
           d="m 102.5004,157.49065 c 5.97071,2.24273 10.38186,5.79801 16.28686,9.44128 5.33576,3.29205 8.59021,4.88778 11.93933,6.32675 M 102.19966,164.206 c 5.06868,2.34295 7.75966,5.37394 11.57604,8.03775 3.25135,2.26943 6.95473,4.88725 10.30324,6.58719 m -21.94847,-7.41091 c 5.1647,3.01429 8.10598,7.98011 13.07621,11.46494 m -14.60376,-5.14183 c 2.44283,2.69569 4.80744,5.6721 7.24503,7.53339 M 95.011781,157.49065 c -5.970712,2.24273 -10.381858,5.79801 -16.286861,9.44128 -5.335751,3.29205 -8.590203,4.88778 -11.939322,6.32675 M 95.312525,164.206 c -5.068678,2.34295 -7.759665,5.37394 -11.576036,8.03775 -3.251359,2.26943 -6.954737,4.88725 -10.303248,6.58719 m 21.94847,-7.41091 c -5.164701,3.01429 -8.105973,7.98011 -13.076206,11.46494 m 14.603759,-5.14183 c -2.442826,2.69569 -4.807442,5.6721 -7.245035,7.53339" />
        <path
           id="path1562"
           style="color:#000000;font-style:normal;font-variant:normal;font-weight:normal;font-stretch:normal;font-size:medium;line-height:normal;font-family:sans-serif;font-variant-ligatures:normal;font-variant-position:normal;font-variant-caps:normal;font-variant-numeric:normal;font-variant-alternates:normal;font-variant-east-asian:normal;font-feature-settings:normal;font-variation-settings:normal;text-indent:0;text-align:start;text-decoration:none;text-decoration-line:none;text-decoration-style:solid;text-decoration-color:#000000;letter-spacing:normal;word-spacing:normal;text-transform:none;writing-mode:lr-tb;direction:ltr;text-orientation:mixed;dominant-baseline:auto;baseline-shift:baseline;text-anchor:start;white-space:normal;shape-padding:0;shape-margin:0;inline-size:0;clip-rule:nonzero;display:inline;overflow:visible;visibility:visible;opacity:1;isolation:auto;mix-blend-mode:normal;color-interpolation:sRGB;color-interpolation-filters:linearRGB;solid-color:#000000;solid-opacity:1;vector-effect:none;fill:#000000;fill-opacity:1;fill-rule:nonzero;stroke:none;stroke-width:1.0289;stroke-linecap:butt;stroke-linejoin:miter;stroke-miterlimit:4;stroke-dasharray:none;stroke-dashoffset:0;stroke-opacity:1;color-rendering:auto;image-rendering:auto;shape-rendering:auto;text-rendering:auto;enable-background:accumulate;stop-color:#000000;stop-opacity:1"
           d="m 254.05273,592.83398 -2.39843,2.22266 c 0.35689,8.59697 -0.11324,17.73063 0.23047,26.32813 l 2.77539,-0.93165 0.47265,-0.69531 c -0.044,-1.11458 -0.8953,-22.67394 -1.08008,-26.92383 z m 244.92383,6.43555 c 0.58216,4.30738 1.33203,23.8457 1.33203,23.8457 l 3.58594,1.04493 0.46094,-0.36914 c -0.0605,-0.52128 -2.01569,-17.62574 -2.62695,-21.8711 z m 14.63282,27.21289 c -2.86901,12.90864 -7.92164,22.5657 -18.11329,28.95703 l 2.65625,1.125 c 10.19165,-6.39133 15.73452,-16.45464 18.60352,-29.36328 z m -22.54688,27.03906 c -2.4785,9.13002 -9.2321,18.61815 -19.04492,23.87305 l 3.40625,1.52149 c 9.81282,-5.25491 16.19337,-14.94421 18.67187,-24.07422 z m -25.31641,20.6875 c -7.80332,10.36721 -15.06803,14.72459 -27.80859,18.70704 l 3.12891,1.9375 c 12.74056,-3.98245 20.10097,-8.58006 27.90429,-18.94727 z m -33.14062,14.94922 c -6.29397,6.19654 -13.22915,10.26531 -22.18164,13.11133 l 2.78515,1.69141 c 8.9525,-2.84602 15.92869,-6.53784 22.22266,-12.73438 z m -27.58789,9.00391 c -11.18218,6.49685 -20.15477,16.00834 -27.68164,25.08789 l 3.01758,0.48828 c 7.60807,-9.22323 15.88339,-16.85567 27.26562,-23.46875 z"
           transform="scale(0.26458333)" />
        <path
           style="font-variation-settings:normal;opacity:1;vector-effect:none;fill:#8a502a;fill-opacity:1;stroke:#000000;stroke-width:0.272232;stroke-linecap:butt;stroke-linejoin:miter;stroke-miterlimit:4;stroke-dasharray:none;stroke-dashoffset:0;stroke-opacity:1;stop-color:#000000;stop-opacity:1"
           d="m 96.584525,191.92876 c 0,0 0.200271,-11.10979 -1.202712,-20.50877 -1.424486,-9.54303 -1.594707,-17.88479 -1.002262,-21.5486 0,0 1.759916,-0.80181 4.376693,-0.80181 2.616776,0 4.376696,0.80181 4.376696,0.80181 0.59244,3.66381 0.42222,12.00557 -1.00227,21.5486 -1.40298,9.39898 -1.20271,20.50877 -1.20271,20.50877 0,0 -0.91864,0.30638 -2.171718,0.30638 -1.253072,0 -2.171717,-0.30638 -2.171717,-0.30638 z"
           id="path1453"
           sodipodi:nodetypes="csczcsczc" />
        <path
           id="path1457"
           style="font-variation-settings:normal;opacity:1;vector-effect:none;fill:#000000;fill-opacity:1;stroke:none;stroke-width:1.0289;stroke-linecap:butt;stroke-linejoin:miter;stroke-miterlimit:4;stroke-dasharray:none;stroke-dashoffset:0;stroke-opacity:1;stop-color:#000000;stop-opacity:1"
           d="m 385.94336,565.13281 c 1.89792,15.13608 1.57574,48.50159 -3.53711,82.75391 -4.63672,31.06279 -3.19182,68.94453 -2.75586,77.9707 1.08173,-0.24007 1.81055,-0.45703 1.81055,-0.45703 0,0 -0.75768,-41.98997 4.54492,-77.51367 5.3839,-36.06815 6.02625,-67.59589 3.78711,-81.44336 0,0 -1.42621,-0.62832 -3.84961,-1.31055 z"
           transform="scale(0.26458333)" />
      </g>
      <path
         id="path1430"
         style="font-variation-settings:normal;opacity:1;vector-effect:none;fill:#0473a9;fill-opacity:1;stroke:none;stroke-width:0.272232;stroke-linecap:butt;stroke-linejoin:miter;stroke-miterlimit:4;stroke-dasharray:none;stroke-dashoffset:0;stroke-opacity:1;stop-color:#000000;stop-opacity:1"
         d="m 66.281739,189.17967 c -4.09664,0 -6.72853,3.16208 -10.82517,3.16208 -3.86337,0 -6.42444,-2.8108 -10.13944,-3.13108 0.83426,1.77374 1.75651,3.50187 2.76004,5.18005 2.40603,0.93249 4.54141,2.44894 7.3794,2.44894 4.09664,0 6.72853,-3.16208 10.82517,-3.16208 4.09665,0 6.72803,3.16208 10.82467,3.16208 4.09664,0 6.72853,-3.16208 10.82517,-3.16208 4.09664,0 6.72802,3.16208 10.824666,3.16208 4.096645,0 6.728535,-3.16208 10.825185,-3.16208 4.09664,0 6.72803,3.16208 10.82466,3.16208 4.09666,0 6.72853,-3.16208 10.82518,-3.16208 4.09662,0 6.72802,3.16208 10.82466,3.16208 2.83781,0 4.97303,-1.51643 7.37888,-2.44894 1.00353,-1.67818 1.92629,-3.40631 2.76055,-5.18005 -3.715,0.32028 -6.27607,3.13108 -10.13943,3.13108 -4.09664,0 -6.72804,-3.16208 -10.82466,-3.16208 -4.09665,0 -6.72852,3.16208 -10.82518,3.16208 -4.09663,0 -6.72802,-3.16208 -10.82466,-3.16208 -4.09665,0 -6.72854,3.16208 -10.825185,3.16208 -4.096646,0 -6.728026,-3.16208 -10.824666,-3.16208 -4.09664,0 -6.72853,3.16208 -10.82517,3.16208 -4.09664,0 -6.72802,-3.16208 -10.82467,-3.16208 z m 0,10.58333 c -4.09664,0 -6.72853,3.16208 -10.82517,3.16208 -0.43668,0 -0.85604,-0.0376 -1.26298,-0.1018 1.25701,1.4433 2.58689,2.82572 3.98477,4.14238 2.71353,-0.87491 4.98458,-2.70474 8.10338,-2.70474 4.09665,0 6.72803,3.16208 10.82467,3.16208 4.09664,0 6.72853,-3.16208 10.82517,-3.16208 4.09664,0 6.72802,3.16208 10.824666,3.16208 4.096645,0 6.728535,-3.16208 10.825185,-3.16208 4.09663,0 6.72803,3.16208 10.82466,3.16208 4.09666,0 6.72853,-3.16208 10.82518,-3.16208 3.11879,0 5.38948,1.82983 8.10286,2.70474 1.39786,-1.31664 2.72727,-2.69911 3.98425,-4.14238 -0.40678,0.0641 -0.82596,0.1018 -1.26245,0.1018 -4.09664,0 -6.72804,-3.16208 -10.82466,-3.16208 -4.09665,0 -6.72852,3.16208 -10.82518,3.16208 -4.09663,0 -6.72803,-3.16208 -10.82466,-3.16208 -4.09665,0 -6.72854,3.16208 -10.825185,3.16208 -4.096646,0 -6.728026,-3.16208 -10.824666,-3.16208 -4.09664,0 -6.72853,3.16208 -10.82517,3.16208 -4.09664,0 -6.72802,-3.16208 -10.82467,-3.16208 z m 0,10.58333 c -1.20773,0 -2.28685,0.27798 -3.31504,0.66559 2.55028,1.92649 5.27762,3.65184 8.16384,5.15008 1.8748,0.8678 3.69895,1.84433 5.97587,1.84433 4.09664,0 6.72853,-3.16208 10.82517,-3.16208 4.09664,0 6.72802,3.16208 10.824666,3.16208 4.096645,0 6.728535,-3.16208 10.825185,-3.16208 4.09664,0 6.72803,3.16208 10.82466,3.16208 2.27463,0 4.09775,-0.97461 5.97069,-1.84175 2.8881,-1.49884 5.61673,-3.22505 8.1685,-5.15266 -1.02795,-0.38749 -2.10651,-0.66559 -3.31401,-0.66559 -4.09665,0 -6.72852,3.16208 -10.82518,3.16208 -4.09663,0 -6.72802,-3.16208 -10.82466,-3.16208 -4.09665,0 -6.72854,3.16208 -10.825185,3.16208 -4.096646,0 -6.728026,-3.16208 -10.824666,-3.16208 -4.09664,0 -6.72853,3.16208 -10.82517,3.16208 -4.09664,0 -6.72802,-3.16208 -10.82467,-3.16208 z" />
      <g
         id="g2649"
         transform="translate(0.16401851)">
        <path
           id="path2633"
           style="font-variation-settings:normal;opacity:1;vector-effect:none;fill:#000000;fill-opacity:1;stroke:none;stroke-width:0.272232;stroke-linecap:butt;stroke-linejoin:miter;stroke-miterlimit:4;stroke-dasharray:none;stroke-dashoffset:0;stroke-opacity:1;stop-color:#000000;stop-opacity:1"
           d="m 102.47714,95.070192 c 0.0206,-1.145125 0.0913,-5.033915 0.0956,-5.271514 1.75378,-1.177443 2.90784,-3.178688 2.90784,-5.449797 0,-3.622858 -2.93695,-6.559288 -6.559819,-6.559288 l -3.556363,17.280599 c -5.76832,-1.459262 -9.812368,-6.37799 -9.812368,-12.224578 0,-1.269622 0.2023,-2.49455 0.57464,-3.650938 l -0.529167,-0.428941 -36.556895,0.428941 c 1.76057,3.521131 5.95835,6.480059 10.49032,7.061068 4.53198,0.581003 12.67123,0.580789 15.5329,0.370519 0.21159,0.765596 0.45884,1.526154 0.72089,2.245339 -2.37851,0.5138 -5.29595,0.619268 -9.4418,0.460439 -4.14584,-0.158832 -5.94274,-0.507667 -8.98395,-1.016992 0.66451,1.999784 3.5132,4.399409 5.89525,5.434293 2.38206,1.034883 5.37257,1.689504 8.84132,1.827794 3.46875,0.138292 7.30136,-0.201536 7.30136,-0.201536 0.49902,0.651251 1.0263,1.276996 1.58078,1.875854 -3.50821,0.633635 -7.09509,0.770175 -12.81265,0.158647 2.07334,3.787859 8.92681,5.598249 13.66376,5.939169 4.46002,0.32098 9.85872,-0.17859 13.6524,-1.82676 0.26211,14.54281 0.70539,38.97461 0.75861,40.19858 0.0709,1.63002 1.558818,1.98437 2.680974,1.98437 1.122158,0 2.610588,-0.35435 2.681488,-1.98437 0.0532,-1.22397 0.49599,-25.65577 0.7581,-40.19858 3.79367,1.64816 9.19237,2.14774 13.65239,1.82676 4.73695,-0.34092 11.59043,-2.15131 13.66377,-5.939169 L 129.3478,96.98116 c -5.38554,1.114047 -9.05846,0.88899 -12.48396,0.270294 0.55448,-0.598858 1.08177,-1.2246 1.58078,-1.875854 0,0 3.83262,0.339826 7.30137,0.201536 3.46875,-0.13829 6.45927,-0.792911 8.84132,-1.827794 2.38205,-1.034884 5.23073,-3.434509 5.89525,-5.434293 l -0.3287,-0.428941 c -2.88014,0.484592 -4.63421,1.291883 -8.65523,1.445933 -4.14585,0.158829 -7.06329,0.05336 -9.4418,-0.460439 0.26205,-0.719185 0.5093,-1.479743 0.72088,-2.245339 2.86167,0.21027 11.00093,0.210487 15.53291,-0.370519 4.53197,-0.581007 8.72974,-3.539935 10.49031,-7.061068 l -0.32872,-0.428941 -31.31246,0.428941 -9.44697,15.994881 z"
           sodipodi:nodetypes="ccsccscccsccscsscccscssccsccccsscccccsccccc" />
        <g
           id="g2647"
           transform="translate(0.47196449)"
           style="stroke-width:0.272232;stroke-miterlimit:4;stroke-dasharray:none">
          <path
             id="path2635"
             style="font-variation-settings:normal;opacity:1;vector-effect:none;fill:#e5e5e5;fill-opacity:1;stroke:none;stroke-width:0.272232;stroke-linecap:butt;stroke-linejoin:miter;stroke-miterlimit:4;stroke-dasharray:none;stroke-dashoffset:0;stroke-opacity:1;stop-color:#000000;stop-opacity:1"
             d="m 98.120073,77.360652 c -3.622864,0 -6.559804,2.93643 -6.559804,6.559288 0,2.271109 1.15457,4.272354 2.90835,5.449797 0.004,0.237599 0.0745,4.126392 0.0951,5.271514 -5.76832,-1.459262 -10.01282,-6.37799 -10.01282,-12.224578 0,-1.269622 0.2023,-2.49455 0.57464,-3.650938 h -36.88561 c 1.76057,3.521131 5.95835,6.480059 10.49032,7.061068 4.53198,0.581003 12.67123,0.580789 15.5329,0.370519 0.21159,0.765596 0.45884,1.526154 0.72089,2.245339 -2.37851,0.5138 -5.29595,0.619268 -9.4418,0.460439 -4.14584,-0.158832 -5.94274,-0.507667 -8.98395,-1.016992 0.66451,1.999784 3.5132,4.399409 5.89525,5.434293 2.38206,1.034883 5.37257,1.689504 8.84132,1.827794 3.46875,0.138292 7.30136,-0.201536 7.30136,-0.201536 0.49902,0.651251 1.0263,1.276996 1.58078,1.875854 -3.50821,0.633635 -7.09509,0.770175 -12.81265,0.158647 2.07334,3.78786 8.92681,5.59825 13.66376,5.93917 4.46002,0.32098 9.85872,-0.17859 13.6524,-1.82676 0.26211,14.54281 0.70539,38.97461 0.75861,40.19858 0.0709,1.63002 1.558818,1.98437 2.680974,1.98437 1.122153,0 2.610587,-0.35435 2.681487,-1.98437 0.0532,-1.22397 0.49599,-25.65577 0.7581,-40.19858 3.79367,1.64816 9.19237,2.14774 13.65239,1.82676 4.73695,-0.34092 11.59043,-2.15131 13.66377,-5.93917 -5.71756,0.611528 -9.30445,0.474988 -12.81266,-0.158647 0.55448,-0.598858 1.08177,-1.2246 1.58078,-1.875854 0,0 3.83262,0.339826 7.30137,0.201536 3.46875,-0.13829 6.45927,-0.792911 8.84132,-1.827794 2.38205,-1.034884 5.23073,-3.434509 5.89525,-5.434293 -3.04121,0.509325 -4.83811,0.85816 -8.98395,1.016992 -4.14585,0.158829 -7.06329,0.05336 -9.4418,-0.460439 0.26205,-0.719185 0.5093,-1.479743 0.72088,-2.245339 2.86167,0.21027 11.00093,0.210487 15.53291,-0.370519 4.53197,-0.581007 8.72974,-3.539935 10.49031,-7.061068 h -36.8856 c 0.37234,1.156388 0.57464,2.381316 0.57464,3.650938 0,5.846588 -4.24451,10.765316 -10.01283,12.224578 0.0206,-1.145125 0.0913,-5.033915 0.0956,-5.271514 1.75378,-1.177443 2.90784,-3.178688 2.90784,-5.449797 0,-3.622858 -2.93695,-6.559288 -6.559809,-6.559288 z" />
          <path
             id="path2637"
             style="font-variation-settings:normal;opacity:1;vector-effect:none;fill:none;fill-opacity:1;stroke:#000000;stroke-width:1.0289;stroke-linecap:round;stroke-linejoin:miter;stroke-miterlimit:4;stroke-dasharray:none;stroke-dashoffset:0;stroke-opacity:1;stop-color:#000000;stop-opacity:1"
             d="m 377.91406,340.94336 -3.60547,193.07422 M 388.29782,309.8073 c 0.9583,2.26567 1.48823,4.75665 1.48823,7.3714 0,10.459 -8.47869,18.93769 -18.93769,18.93769 -2.61475,0 -5.10573,-0.52991 -7.37141,-1.48821"
             transform="scale(0.26458333)" />
          <path
             id="path2639"
             style="font-variation-settings:normal;vector-effect:none;fill:#e5e5e5;fill-opacity:1;stroke:none;stroke-width:0.272232;stroke-linecap:butt;stroke-linejoin:miter;stroke-miterlimit:4;stroke-dasharray:none;stroke-dashoffset:0;stroke-opacity:1;stop-color:#000000"
             d="m 96.326219,112.14044 c -8.201843,0 -10.394873,-1.45336 -10.996233,-2.49752 -0.60135,-1.04416 0.80601,-1.8533 2.17145,-1.02216 1.36544,0.83114 3.07669,0.96295 3.93929,0.25425 -0.39429,-0.65991 -0.95393,-0.77512 -1.52962,-1.04232 -0.61947,-0.28753 -0.49561,-0.78333 0.12092,-0.90433 0.61654,-0.12101 0.94102,0.53795 2.0345,0.53795 0.23766,-0.78384 -0.17128,-1.70445 -0.88004,-2.29754 -0.71446,-0.59786 -1.75826,-1.28312 -4.03852,-1.30276 -0.32575,-0.003 -0.67636,0.008 -1.05523,0.0346 -3.03097,0.21261 -6.01359,2.63262 -6.01359,5.86476 0,3.23214 1.50274,4.64421 4.17804,5.79396 1.32235,0.5683 2.98682,0.89126 4.77025,1.07332 -1.10233,1.41243 -1.66811,2.99418 -1.66811,4.49223 0,2.56014 0.78675,4.57031 2.75332,5.74074 -0.78559,1.22098 -1.13327,2.6866 -1.13327,4.10311 0,1.64782 0.68691,3.16838 2.08463,4.28914 -0.60588,0.41222 -1.14409,0.95217 -1.57613,1.66398 -1.85396,3.05449 -0.83688,5.43663 -0.11472,6.80372 1.2358,-3.73 2.56894,-5.66829 5.9769,-6.31848 l -0.006,-0.43201 c 0.7239,0.11102 1.508776,0.17157 2.359551,0.17157 0.141616,0 0.272487,0.005 0.409276,0.007 -2.64e-4,7.9e-4 -5.29e-4,0.001 -0.0011,0.002 0.0029,-5e-5 0.0054,-5.3e-4 0.0083,-5.3e-4 5.547317,0.0898 7.220687,1.96402 8.746747,6.57014 0.72216,-1.36709 1.73924,-3.74923 -0.11472,-6.80372 -0.43204,-0.71181 -0.97025,-1.25176 -1.57613,-1.66398 1.39772,-1.12076 2.08463,-2.64133 2.08463,-4.28915 0,-1.4165 -0.34767,-2.88212 -1.13327,-4.1031 1.96657,-1.17043 2.75333,-3.1806 2.75333,-5.74074 0,-1.49806 -0.56578,-3.0798 -1.66812,-4.49223 1.78343,-0.18207 3.4479,-0.50502 4.77025,-1.07332 2.67531,-1.14975 4.17804,-2.56182 4.17804,-5.79396 0,-3.23214 -2.98262,-5.65215 -6.01359,-5.86476 -3.03097,-0.21261 -4.27721,0.58487 -5.09374,1.26814 -0.70876,0.59309 -1.1177,1.51369 -0.88005,2.29754 1.09348,0 1.41796,-0.65897 2.0345,-0.53796 0.61654,0.12101 0.7404,0.61681 0.12092,0.90434 -0.57568,0.2672 -1.13533,0.3824 -1.52962,1.04231 0.8626,0.7087 2.57385,0.57689 3.93929,-0.25424 1.36545,-0.83114 2.77229,-0.022 2.17093,1.02216 -0.56473,0.98057 -2.5166,2.32176 -9.54707,2.4815 -0.004,0.24355 -0.0263,0.47004 -0.0306,0.70693 -0.97866,-0.29192 -2.050223,-0.49989 -3.211175,-0.6072 -0.577205,-0.0529 -1.17316,-0.0837 -1.794206,-0.0837 z m 6.354651,9.08472 c 0,1.35342 -0.42305,2.04376 -1.53324,2.39675 l -0.0202,0.40876 c -0.29508,-0.0275 -0.6023,-0.0419 -0.92191,-0.0419 -0.775751,0 -1.459508,-0.005 -2.08152,-0.0204 -3.441294,-0.0843 -4.565094,-0.52795 -4.565094,-2.74324 -10e-6,-0.92819 0.55722,-1.74624 1.43505,-2.41691 l -0.0263,-1.94097 c 1.03796,0.0293 2.123868,0.19695 3.147869,0.4793 2.484595,0.69208 4.565355,2.0807 4.565355,3.87858 z m -8.628414,10.18594 c 0,-0.83907 0.24256,-1.65928 1.14334,-2.28591 -0.009,-0.37789 -0.0167,-0.76065 -0.0235,-1.12267 0.0392,2.7e-4 0.0774,0.002 0.11731,0.002 1.102758,-1e-5 2.029202,0.0606 2.814294,0.16794 0.0056,-7.9e-4 0.0104,-0.002 0.01603,-0.003 3.39563,0.46278 4.06745,1.82791 4.06745,3.24114 0,0.94574 -0.39129,1.6103 -1.2189,2.02107 -0.004,0.20328 -0.0252,0.37111 -0.0291,0.57619 -0.92405,-0.0677 -1.839349,-0.0631 -2.752029,-0.0646 -2.809805,-0.0316 -4.134885,-0.82625 -4.134885,-2.53266 z"
             sodipodi:nodetypes="ssscsscssssscscscscccsccccscscscsssscsscsscccssccscscccssccsccscccscsc" />
          <path
             id="path2641"
             style="opacity:1;fill:#000000;fill-opacity:1;stroke:none;stroke-width:1.0289;stroke-linecap:round;stroke-linejoin:miter;stroke-miterlimit:4;stroke-dasharray:none;stroke-dashoffset:2.69999"
             d="m 333.9668,397.08594 c -1.51598,-0.0258 -2.70916,0.44873 -2.81836,1.48828 -0.12479,1.18813 1.21262,2.66422 3.0332,2.85547 1.82058,0.1912 3.43579,-0.97402 3.56055,-2.16211 0.12475,-1.18806 -1.28687,-1.94743 -3.10742,-2.13867 -0.22757,-0.0239 -0.45141,-0.0393 -0.66797,-0.043 z m 77.33008,0 c -0.21657,0.004 -0.4404,0.0191 -0.66797,0.043 -1.82056,0.19124 -3.23219,0.95061 -3.10743,2.13867 0.12473,1.18809 1.738,2.35331 3.5586,2.16211 1.82056,-0.19125 3.158,-1.66734 3.0332,-2.85547 -0.10913,-1.03955 -1.30043,-1.51408 -2.8164,-1.48828 z m -69.60352,5.63867 c -1.06503,0.0708 -1.85916,0.59491 -2.24609,1.42187 -0.54649,1.16798 0.47975,2.26804 1.32421,2.89649 -1.32628,-1.08502 -0.70285,-2.51295 1.29102,-2.9043 2.33022,-0.45736 3.5566,2.03321 7.68945,2.03321 0.25723,-0.8484 0.29447,-1.7389 0.18164,-2.63086 -0.33891,0.81758 -1.51262,2.39188 -4.36718,0.48046 -1.47172,-0.98547 -2.80802,-1.3677 -3.87305,-1.29687 z m 61.875,0 c -1.06503,-0.0708 -2.40134,0.3114 -3.87305,1.29687 -2.85456,1.91142 -4.02816,0.33709 -4.36719,-0.48046 -0.11261,0.89193 -0.0734,1.78246 0.1836,2.63086 4.13287,-10e-6 5.35922,-2.49057 7.68945,-2.03321 1.99385,0.39133 2.61729,1.81931 1.29102,2.9043 0.84446,-0.62842 1.8707,-1.7285 1.32422,-2.89649 -0.38691,-0.82696 -1.18106,-1.35119 -2.2461,-1.42187 z m -75.71875,6.51953 c -2.78172,0.13255 -4.69023,1.9998 -3.91602,4.3457 0.85692,-2.3077 4.45555,-3.69264 8.94336,-0.96093 4.4878,2.73172 10.19532,3.60909 15.34961,0.45703 -0.2502,-0.73173 -0.47145,-1.22015 -0.83984,-1.58985 -4.40439,2.74683 -10.2254,1.87759 -14.88867,-0.96093 -1.61272,-0.98167 -3.24149,-1.35806 -4.64844,-1.29102 z m 89.5625,0 c -1.40693,-0.067 -3.03575,0.30936 -4.64844,1.29102 -4.6633,2.8385 -10.74539,3.54133 -14.88867,0.96093 -0.36839,0.36968 -0.58963,0.85814 -0.83984,1.58985 5.15429,3.15209 10.8618,2.2747 15.34961,-0.45703 4.48781,-2.7317 8.08643,-1.34677 8.94335,0.96093 0.7742,-2.34591 -1.13428,-4.21304 -3.91601,-4.3457 z m -112.95313,7.10938 c -0.0146,12.7228 5.66601,18.06073 15.77735,22.40625 4.44882,1.91194 10.55474,3.1919 16.71094,3.86718 6.1562,0.67528 14.06149,0.77149 21.7207,0.77149 14.28605,0 30.1905,5.49856 31.20102,14.7754 0.0154,-7.16508 -7.833,-12.47895 -17.10141,-15.14259 -4.31757,-1.20703 -8.94603,-1.86719 -13.29492,-1.86719 -6.93538,0 -14.35228,-0.14729 -21.15625,-0.84179 -6.80397,-0.6945 -13.08221,-1.41461 -18.08008,-3.5625 -9.82941,-4.22436 -15.45581,-9.40622 -15.77735,-20.40625 z m 136.34375,0 c -0.32152,11.00005 -5.94789,16.18191 -15.77734,20.40625 -4.90995,2.11011 -11.28814,3.29652 -18.0287,4.0564 3.98104,5.37873 6.30409,11.3516 6.30409,16.97875 0,9.67556 -2.97401,17.27307 -10.4082,21.69531 0.26068,0.4051 0.49605,0.82398 0.73242,1.24219 2.44609,4.35056 3.55273,9.38322 3.55273,14.26758 0,6.08132 -2.62555,12.0071 -7.87831,16.2124 l 1.97988,1.52002 c 1.24794,0.95808 2.27093,2.32635 3.97656,4.76758 2.31881,3.31887 3.8256,9.23045 3.62695,13.77344 -0.19866,4.54298 -2.30341,9.19895 -3.68164,12.05078 l 0.38672,1.16406 0.38281,1.21094 c 1.87084,-3.54164 4.60795,-9.52339 4.57032,-15.12305 -0.0376,-5.59967 -1.46837,-9.90911 -3.28516,-12.90234 -1.4967,-2.46587 -3.22165,-4.25045 -4.88281,-5.83203 4.53911,-3.9428 6.80468,-9.11066 6.80468,-14.8418 0,-5.78673 -1.09141,-11.78799 -4.01562,-16.60352 6.68854,-4.70727 9.74609,-13.39007 9.74609,-20.60156 0,-6.9048 -1.57478,-12.12643 -5.05664,-17.33984 5.59632,-0.6632 10.72534,-1.78351 15.17383,-3.69531 10.11137,-4.34552 15.79246,-9.68346 15.77734,-22.40625 z m -79.89843,32.60742 c -3.3744,2.54867 -5.51174,5.67034 -5.51172,9.21289 0,4.62137 1.28483,7.20361 4.61914,8.64453 -1.79524,-1.61841 -2.72656,-3.92088 -2.72656,-7.21289 0,-3.29408 1.35225,-6.05387 3.61718,-8.30078 z m -28.94336,8.83398 -0.375,2 c 0,9.16439 4.00301,18.00675 9.84179,21.29102 5.83878,3.28427 11.47532,4.71093 20.5586,4.71094 20.90471,0 25.51357,5.59987 25.97265,11.75195 0.022,-0.28746 0.0449,-0.57446 0.0449,-0.87695 0,-5.34162 -2.46742,-10.99558 -15.30274,-12.74415 -2.99501,-0.40807 -6.53027,-0.6289 -10.71094,-0.6289 -8.48604,0 -13.40084,-0.66586 -19.37109,-4.23633 -5.97025,-3.57047 -10.6582,-11.62257 -10.6582,-21.26758 z m 29.60547,30.23828 c -3.40693,2.36641 -4.3086,5.4696 -4.3086,8.63868 0,6.1695 4.56949,9.19276 14,9.54296 -9.21047,-0.35387 -12.125,-3.37799 -12.125,-9.54296 0,-2.79101 0.3611,-5.17026 2.46485,-6.98633 -0.0103,-0.54707 -0.0213,-1.09904 -0.0312,-1.65235 z m -23.4668,8.54297 c -0.0134,11.19228 7.82748,20.33165 24.0293,22.74219 -12.87056,2.46228 -18.35258,9.97622 -23.02344,24.07422 l 0.56836,1.0957 0.61523,1.21094 c 5.2386,-15.81161 12.87384,-25.76953 29.66406,-25.76953 16.79023,0 25.62152,3.84503 31.34766,12.61523 -3.95995,-7.39864 -9.23912,-11.59887 -18.60547,-13.29687 -3.96369,-0.73853 -6.09492,-1.09826 -10.06836,-1.36328 -13.24333,0 -20.9992,-2.7711 -26.35351,-7.06446 -5.04288,-3.91264 -7.86566,-8.68472 -8.17383,-14.24414 z"
             transform="matrix(0.26458333,0,0,0.26458333,-0.47196449,0)"
             sodipodi:nodetypes="ssssssssssssssssccsscsccscsccscsccssssscscscsssccsssccsssccscccscccsscscscsccscscccccscssssccscccccccccsccccccccc" />
          <path
             id="path2643"
             style="font-variation-settings:normal;opacity:1;vector-effect:none;fill:#000000;fill-opacity:1;stroke:none;stroke-width:1.0289;stroke-linecap:butt;stroke-linejoin:miter;stroke-miterlimit:4;stroke-dasharray:none;stroke-dashoffset:0;stroke-opacity:1;stop-color:#000000;stop-opacity:1"
             d="m 384.30582,426.78771 c 0.0183,-1.00867 0.0666,-3.39356 0.0666,-3.39356 l -1.27039,0.38329 c 0,0 -0.0994,1.77643 -0.11566,2.67176 z m -0.77334,42.05416 c 0.0143,-0.77573 0.0535,-2.43444 0.0535,-2.43444 l -1.28135,0.49029 -0.0899,1.87962 z m -0.71019,37.69765 c 0.0213,-1.11705 0.0746,-3.27684 0.0746,-3.27684 l -1.28307,1.04781 c 0,0 -0.0951,1.4027 -0.11001,2.17779 z"
             sodipodi:nodetypes="ccccccccccccccc"
             transform="scale(0.26458333)" />
          <g
             id="g2645"
             style="opacity:1;stroke-width:0.272232;stroke-miterlimit:4;stroke-dasharray:none" />
        </g>
      </g>
      <path
         style="font-variation-settings:normal;opacity:1;vector-effect:none;fill:none;fill-opacity:1;stroke:#000000;stroke-width:0.40835;stroke-linecap:butt;stroke-linejoin:miter;stroke-miterlimit:4;stroke-dasharray:none;stroke-dashoffset:0;stroke-opacity:1;stop-color:#000000;stop-opacity:1"
         d="m 34.405184,72.945146 c 0,0 3.39856,66.032394 5.41062,95.104954 2.04153,29.49828 25.8767,54.7159 58.94029,54.7159 33.063596,0 56.898756,-25.21762 58.940286,-54.7159 2.01207,-29.07256 5.41062,-95.104954 5.41062,-95.104954 z"
         id="path2237"
         sodipodi:nodetypes="cszscc" />
    </g>
  </g>
</svg>
