<?xml version="1.0" encoding="UTF-8" standalone="no"?>
<svg
   xmlns:dc="http://purl.org/dc/elements/1.1/"
   xmlns:cc="http://creativecommons.org/ns#"
   xmlns:rdf="http://www.w3.org/1999/02/22-rdf-syntax-ns#"
   xmlns:svg="http://www.w3.org/2000/svg"
   xmlns="http://www.w3.org/2000/svg"
   xmlns:sodipodi="http://sodipodi.sourceforge.net/DTD/sodipodi-0.dtd"
   xmlns:inkscape="http://www.inkscape.org/namespaces/inkscape"
   inkscape:version="1.0 (4035a4fb49, 2020-05-01)"
   sodipodi:docname="porvoo.svg"
   id="svg8"
   version="1.1"
   viewBox="0 0 82.594884 83.999793"
   height="317.47952"
   width="312.16965">
  <defs
     id="defs2">
    <style
       type="text/css"
       id="style6">
   
    .str0 {stroke:#006EC7;stroke-width:2.0041}
    .fil4 {fill:#605D5C}
    .fil3 {fill:white}
    .fil2 {fill:#D0CFCF}
    .fil1 {fill:#0033AB}
    .fil0 {fill:#006EC7}
   
  </style>
  </defs>
  <sodipodi:namedview
     inkscape:snap-smooth-nodes="true"
     inkscape:object-nodes="true"
     inkscape:showpageshadow="false"
     inkscape:window-maximized="1"
     inkscape:window-y="-8"
     inkscape:window-x="-8"
     inkscape:window-height="1017"
     inkscape:window-width="1920"
     units="px"
     showgrid="false"
     inkscape:document-rotation="0"
     inkscape:current-layer="layer1"
     inkscape:document-units="px"
     inkscape:cy="192.68246"
     inkscape:cx="203.97387"
     inkscape:zoom="0.9134936"
     inkscape:pageshadow="2"
     inkscape:pageopacity="0.0"
     borderopacity="1.0"
     bordercolor="#666666"
     pagecolor="#ffffff"
     id="base"
     inkscape:snap-others="false"
     inkscape:lockguides="true" />
  <metadata
     id="metadata5">
    <rdf:RDF>
      <cc:Work
         rdf:about="">
        <dc:format>image/svg+xml</dc:format>
        <dc:type
           rdf:resource="http://purl.org/dc/dcmitype/StillImage" />
        <dc:title></dc:title>
      </cc:Work>
    </rdf:RDF>
  </metadata>
  <g
     transform="translate(-31.420992,-68.836438)"
     id="layer1"
     inkscape:groupmode="layer"
     inkscape:label="Шар 1">
    <path
       sodipodi:nodetypes="czczcc"
       id="path844"
       d="m 34.145271,68.836438 c 0,0 -8.212542,23.452073 3.880476,49.438832 12.093018,25.98676 34.69269,34.56096 34.69269,34.56096 0,0 22.599673,-8.5742 34.692693,-34.56096 12.09301,-25.986759 3.88047,-49.438832 3.88047,-49.438832 z"
       style="font-variation-settings:normal;opacity:1;vector-effect:none;fill:#0057f0;fill-opacity:1;fill-rule:evenodd;stroke:none;stroke-width:0.264583;stroke-linecap:butt;stroke-linejoin:miter;stroke-miterlimit:4;stroke-dasharray:none;stroke-dashoffset:0;stroke-opacity:1;marker:none;marker-start:none;marker-mid:none;marker-end:none;stop-color:#000000;stop-opacity:1" />
    <path
       style="font-variation-settings:normal;opacity:1;vector-effect:none;fill:#002e99;fill-opacity:1;fill-rule:evenodd;stroke:none;stroke-width:0.264583;stroke-linecap:butt;stroke-linejoin:miter;stroke-miterlimit:4;stroke-dasharray:none;stroke-dashoffset:0;stroke-opacity:1;marker:none;marker-start:none;marker-mid:none;marker-end:none;stop-color:#000000;stop-opacity:1"
       d="m 79.017833,85.216311 c 5.597237,0.325844 8.261322,6.424449 4.694247,8.000599 -3.567073,1.576149 -5.337747,-2.496071 -5.337747,-2.496071 l -0.445758,0.03383 c -0.337796,0.856802 -1.616045,3.196584 -0.207058,6.148746 1.612842,3.379285 7.065795,4.300915 11.136308,1.536042 4.070512,-2.764876 7.00899,-11.591819 0.0993,-18.636561 -6.909693,-7.044743 -21.453563,-6.104501 -30.824669,1.655389 -9.371107,7.759891 -9.211734,20.027655 -9.211734,23.930245 0,3.90259 -0.236175,16.40076 9.134932,24.16066 9.371106,7.75989 24.046085,8.03526 30.955778,0.99052 6.909693,-7.04475 3.862601,-16.03461 -0.207911,-18.79949 -4.070513,-2.76487 -9.46916,-1.24587 -11.082001,2.13342 -1.263151,2.64661 -0.387273,4.74692 0.207039,5.52503 0.164531,0.21541 0.368975,0.27354 0.368975,0.27354 0,0 1.655471,-3.57301 5.222544,-1.99686 3.567075,1.57615 1.475146,7.93971 -4.285013,7.93971 -5.760159,0 -13.68195,-3.68475 -13.68195,-20.22653 0,-16.54178 7.714298,-20.506978 13.464721,-20.172217 z"
       id="path875"
       sodipodi:nodetypes="szccsszzzzzsssczszss" />
    <path
       sodipodi:nodetypes="szcsszzzzzssczszs"
       id="path857"
       d="m 78.542973,84.687144 c 5.760159,0 8.0984,6.641678 4.531325,8.217828 -3.567073,1.576149 -5.145742,-2.150461 -5.145742,-2.150461 0,0 -2.457666,2.45767 -0.844821,5.836964 1.612844,3.379293 7.065795,4.300915 11.136308,1.536042 4.070512,-2.764876 7.063297,-11.157361 0.153604,-18.202103 -6.909693,-7.044743 -21.50787,-6.538959 -30.878976,1.220931 -9.371107,7.759891 -9.211734,20.027655 -9.211734,23.930245 0,3.90259 -0.159373,16.17035 9.211734,23.93025 9.371106,7.75989 23.969283,8.26567 30.878976,1.22093 6.909693,-7.04475 3.916908,-15.43723 -0.153604,-18.20211 -4.070513,-2.76487 -9.523464,-1.84325 -11.136308,1.53604 -1.612845,3.3793 0.844821,5.83697 0.844821,5.83697 0,0 1.578669,-3.72661 5.145742,-2.15046 3.567075,1.57615 1.228834,8.21783 -4.531325,8.21783 -5.760159,0 -13.627643,-3.84767 -13.627643,-20.38945 0,-16.54178 7.867484,-20.389446 13.627643,-20.389446 z"
       style="font-variation-settings:normal;opacity:1;vector-effect:none;fill:#cccccc;fill-opacity:1;fill-rule:evenodd;stroke:none;stroke-width:0.264583;stroke-linecap:butt;stroke-linejoin:miter;stroke-miterlimit:4;stroke-dasharray:none;stroke-dashoffset:0;stroke-opacity:1;marker:none;marker-start:none;marker-mid:none;marker-end:none;stop-color:#000000;stop-opacity:1" />
    <path
       transform="scale(0.26458333)"
       d="m 283.1582,283.33398 c -22.64833,-0.0627 -47.03947,7.78045 -65.85547,23.36133 -35.41835,29.32872 -34.8164,75.69537 -34.8164,90.44531 0,14.74995 -0.60195,61.11461 34.8164,90.44336 14.75532,12.21837 32.93815,19.66071 51.02149,22.28125 -16.80166,-3.09918 -33.52634,-10.41286 -47.36133,-21.86914 -35.41834,-29.32875 -35.63672,-76.10552 -35.63672,-90.85547 0,-14.74994 0.3961,-60.30402 34.81445,-88.80468 33.70867,-27.91298 88.28143,-29.92925 115.05079,-4.98828 -0.39365,-0.42266 -0.76948,-0.84736 -1.18164,-1.26758 -12.24159,-12.48085 -30.86775,-18.69072 -50.85157,-18.7461 z m 17.76758,36.74414 c -0.77529,0 -1.56452,0.0241 -2.36133,0.0625 20.51176,1.27295 28.54017,25.19792 15.41797,30.9961 -4.72223,2.08657 -8.52009,1.7123 -11.46484,0.34766 2.97104,2.89813 7.33732,4.81198 13.43164,2.11914 13.48186,-5.95711 6.74724,-33.5254 -15.02344,-33.5254 z m -6.39258,22.93165 c 0,0 -9.28915,9.28841 -3.19336,22.06054 3.8271,8.01867 13.37571,12.37325 23.75977,11.91992 -9.25204,-0.38291 -17.44476,-4.63861 -20.91992,-11.91992 -4.36848,-9.15299 -0.84301,-16.49512 1.50976,-19.93359 -0.77798,-1.23713 -1.15625,-2.12695 -1.15625,-2.12695 z m 18.88282,74.24609 c -9.72102,0.0619 -18.4568,4.36968 -22.07618,11.95312 -6.09579,12.77216 3.19336,22.0625 3.19336,22.0625 0,0 0.36327,-0.82868 1.06055,-1.96484 -2.35079,-3.07122 -5.72342,-9.61734 -1.41406,-18.64648 5.37044,-11.25236 23.58079,-14.38766 38.35937,-7.83008 -6.03062,-3.84025 -12.78456,-5.61461 -19.12304,-5.57422 z m -3.39649,24.42578 c -0.34397,0.0115 -0.68062,0.0377 -1.00976,0.0762 1.52865,0.16421 3.18267,0.59384 4.97265,1.38477 13.48186,5.9571 4.64373,31.06054 -17.12695,31.06054 -6.98009,0 -14.77731,-1.50977 -22.15235,-5.60156 8.18258,5.8143 17.10625,8.06446 24.99024,8.06446 21.77068,0 30.60881,-27.56634 17.12695,-33.52344 -2.52784,-1.11696 -4.79114,-1.52822 -6.80078,-1.46094 z"
       style="font-variation-settings:normal;opacity:1;vector-effect:none;fill:#ffffff;fill-opacity:1;fill-rule:evenodd;stroke:none;stroke-width:0.999999;stroke-linecap:butt;stroke-linejoin:miter;stroke-miterlimit:4;stroke-dasharray:none;stroke-dashoffset:0;stroke-opacity:1;marker:none;marker-start:none;marker-mid:none;marker-end:none;stop-color:#000000;stop-opacity:1"
       id="path872" />
  </g>
</svg>
